PathFileType	4	(X/Y/Z)	pose_F01_0-83.trc
DataRate	CameraRate	NumFrames	NumMarkers	Units	OrigDataRate	OrigDataStartFrame	OrigNumFrames
30	30	9	21	m	30	35	83
Frame#	Time	CHip			RHip			RKnee			RAnkle			RBigToe			RSmallToe			RHeel			LHip			LKnee			LAnkle			LBigToe			LSmallToe			LHeel			Neck			Nose			RShoulder			RElbow			RWrist			LShoulder			LElbow			LWrist			
		X1	Y1	Z1	X2	Y2	Z2	X3	Y3	Z3	X4	Y4	Z4	X5	Y5	Z5	X6	Y6	Z6	X7	Y7	Z7	X8	Y8	Z8	X9	Y9	Z9	X10	Y10	Z10	X11	Y11	Z11	X12	Y12	Z12	X13	Y13	Z13	X14	Y14	Z14	X15	Y15	Z15	X16	Y16	Z16	X17	Y17	Z17	X18	Y18	Z18	X19	Y19	Z19	X20	Y20	Z20	X21	Y21	Z21	
35	1.1666666666666667	-0.24077313566772365	1.8781144400087872	-0.5321698838890789	-0.25587326216792955	1.873914582301143	-0.45825378991400423	-0.25603513373752457	1.7305284199461222	-0.4322991080809567													-0.22433003036605773	1.8791479081918103	-0.5888395252324108	-0.2199152581353724	1.7386464216106114	-0.5530360032233864	-0.21690213696092667	1.5901765838317714	-0.5368801662806596	-0.2267838153504082	1.5595795932624248	-0.6066227031214579	-0.21262790597699888	1.5680669341740974	-0.6179379460103661	-0.22669687492434057	1.584286569961312	-0.5129991779677385	-0.24007678459674067	2.051297700708514	-0.5255542100256979	-0.2455293341879894	2.1233720746587523	-0.5777084213586696	-0.2633962824220747	2.0480537191428243	-0.4321279396400865	-0.26916051024914306	1.952216187126888	-0.4010948130373983	-0.27583071105645734	1.8737322621912453	-0.3959588412988555	-0.2137917008229557	2.054712762885118	-0.6199123358033429	-1.4179759734699817	1.8739054827501072	0.6410450101329389	-0.2020778836802936	1.8954704033301792	-0.647648550238368
36	1.2	-0.24076939078574464	1.8784633167509437	-0.5321693107565211	-0.2559658252313746	1.8754739841616161	-0.4585216664491341	-0.256036735808756	1.7300798381860278	-0.43225511753510637													-0.2242797176250514	1.8820728924776413	-0.5891152385089411	-0.22278859583825852	1.7380781382572648	-0.5540531819268337	-0.2166041940537877	1.5901780121224969	-0.5371832005436777	-0.2256776967858799	1.55903134105878	-0.6033381883613016	-0.21235063841263413	1.566894236931258	-0.617904196044868	-0.22669687492434057	1.584286569961312	-0.5129991779677385	-0.2400288338749769	2.0512287685158688	-0.5256286754774736	-0.24554495872859158	2.123321042036203	-0.5777402266374805	-0.2614393138887694	2.049194224347616	-0.43415122344629975	-0.2680515572308384	1.9546003637854947	-0.4065070452254451	-0.27652464873692484	1.8747061291215499	-0.3989742131840472	-0.21174689924579185	2.0547468276934304	-0.6220758524204244	-1.417198058117874	1.8734641012412911	0.6400482838803886	-0.20198935830484077	1.89689706343845	-0.6477165964889343
37	1.2333333333333334	-0.2406637672173309	1.8764235648639767	-0.5320029968735616	-0.2558859532610165	1.873487898634668	-0.4582660712182232	-0.25603833787998753	1.7296312564259335	-0.4322111269892561													-0.2221325518374639	1.8798718954578548	-0.591155791589666	-0.22071318390245556	1.737547237905824	-0.5562530105528323	-0.21630625114664875	1.5901794404132221	-0.537486234806696	-0.226078029899645	1.5609567416128605	-0.6031433911851006	-0.2147494441386828	1.5682856946306691	-0.6158282880474478	-0.22669687492434057	1.584286569961312	-0.5129991779677385	-0.24001777200557817	2.0511787523393874	-0.525728722315064	-0.24552893422130534	2.123280602623009	-0.577761243156678	-0.2613941882968779	2.049228243413422	-0.4341694030528644	-0.26698792448250674	1.954888048520652	-0.40332966176322144	-0.27758355202134744	1.8755275427445532	-0.39391170603985537	-0.21177327842545648	2.054595738224242	-0.6222401965725022	-1.4164201427657666	1.8730227197324751	0.6390515576278383	-0.2019008329293879	1.898323723546721	-0.6477846427395006
38	1.2666666666666666	-0.2407374041029628	1.8779469807279934	-0.5322350021594167	-0.25585435696367503	1.8740714421105542	-0.4584235541550344	-0.25603791002134596	1.7300425533337729	-0.4322407068895421													-0.22412889314799456	1.8800795653565463	-0.5889541062520688	-0.21873339150041196	1.736036603970827	-0.558217033849966	-0.21600830823950978	1.5901808687039476	-0.5377892690697141	-0.22232414755359745	1.5606808035053512	-0.6025467307063938	-0.2110433873701012	1.5678888309550458	-0.6152443994743727	-0.22669687492434057	1.584286569961312	-0.5129991779677385	-0.24003860713691252	2.051274188423663	-0.525590282811874	-0.24548938689625835	2.1233555205913133	-0.5777809418433956	-0.2614372998779766	2.049232088301362	-0.4341876185535952	-0.26768504608112903	1.955753945561237	-0.3979643382443297	-0.2766459464448875	1.8738609002233404	-0.3989414290049221	-0.2118372446142254	2.053742430516026	-0.6220881589883954	-1.414603195798457	1.8738391989940497	0.6367086432670159	-0.42501138783415526	1.8874908219468531	-0.42095400661593135
39	1.3	-0.24289796251125	1.8763956261940842	-0.5300304275197149	-0.25635241404893677	1.8731078124348628	-0.45827736322662144	-0.25667907637890924	1.7285574660518737	-0.4315781663617132													-0.22528152992516082	1.8804726259561355	-0.5920649538142945	-0.22184700439164654	1.739302257004337	-0.5596941685496065	-0.21601196497171893	1.5894814388952738	-0.537714306783767	-0.22374302950002564	1.5597701410899845	-0.6055585383518034	-0.21360085455498876	1.568279340485141	-0.6211469526560062	-0.22669687492434057	1.584286569961312	-0.5129991779677385	-0.24002299126870927	2.0512695680362567	-0.525650697309875	-0.2463846411502467	2.1236500899427386	-0.5807621320387044	-0.2613157198471001	2.050333002813905	-0.43415826860660567	-0.2698136774463678	1.9547803353089919	-0.39573548734284886	-0.2789462341253642	1.8725639026195138	-0.39680345483819385	-0.2118740761324034	2.0537194972755364	-0.6221421201827482	-1.4127862488311478	1.8746556782556243	0.6343657289061935	-0.6481219427389225	1.8766579203469853	-0.19412337049236206
40	1.3333333333333333	-0.24061087926272884	1.8783556766574425	-0.5325489962646316	-0.2570167735412328	1.8751092422401228	-0.4617858431382416	-0.25543192608812626	1.729496841866149	-0.437339223295736													-0.2227795413577327	1.8809849836551833	-0.594477697388324	-0.22075165816094713	1.738999932367569	-0.5650888996863522	-0.21601562170392805	1.5887820090866	-0.5376393444978198	-0.2244948723276412	1.5587296986471884	-0.6087599958870803	-0.21333793047442307	1.5670344656645023	-0.6211478259410176	-0.22669687492434057	1.584286569961312	-0.5129991779677385	-0.2400774185066568	2.051275206422045	-0.5256450159354273	-0.24419690452027398	2.1252428799971437	-0.5827094538678735	-0.26137826447471096	2.050353252374227	-0.4341460669718808	-0.27570980580356946	1.9544215670836331	-0.397906432102943	-0.27861184475619116	1.8744955788873834	-0.39710978362127164	-0.21379642225723958	2.0548885034022177	-0.6199005390589168	-1.4109693018638383	1.8754721575171989	0.6320228145453711	-0.8712324976436898	1.8658250187471177	0.032707265631207294
41	1.3666666666666667	-0.24158977708920903	1.880899694047063	-0.5358902613134152	-0.25794556959417	1.8781745709107975	-0.47392370374338044	-0.25587189491363027	1.732634243905204	-0.4375303749368927													-0.22306587483927293	1.8842152493257383	-0.5947501715695603	-0.21972223881997674	1.7402758787335395	-0.5705686194692243	-0.21601927843613716	1.5880825792779263	-0.5375643822118727	-0.22485304142828041	1.5605221898476616	-0.6088161955063182	-0.21349671241743182	1.5703261965954247	-0.6217864517358412	-0.22669687492434057	1.584286569961312	-0.5129991779677385	-0.24001903432098118	2.0536512023048843	-0.5260025071135411	-0.2411680728552195	2.129016732979459	-0.5827979452550291	-0.26124336635436063	2.052829812939023	-0.43475371187186374	-0.285892066659281	1.9663499144292573	-0.3921198718005615	-0.2803317912685463	1.8922552676964532	-0.4241629047315148	-0.2149157232121497	2.0558370803555372	-0.6145199020628389	-1.4091523548965288	1.8762886367787734	0.6296799001845488	-1.0943430525484572	1.8549921171472499	0.25953790175477653
42	1.4	-0.24138325137107855	1.8805937957333088	-0.5357239282380825	-0.25773104685917747	1.8762681260073901	-0.46512134415388057	-0.2571602031950795	1.7307816541637147	-0.4381304022355487													-0.22503248376830715	1.8828721296468471	-0.5923577773453232	-0.22205791919215392	1.734236548181687	-0.5717941657381125	-0.2160229351683463	1.5873831494692525	-0.5374894199259256	-0.22357296286853826	1.5594822815093916	-0.6051953125203833	-0.21233676511309	1.5668855928407235	-0.617881372391372	-0.22669687492434057	1.584286569961312	-0.5129991779677385	-0.23790546483110495	2.0557582986154017	-0.5280522876276444	-0.24115312329555239	2.1335776138025406	-0.5844061847180354	-0.2601896728961959	2.0554244289565933	-0.43979627940144617	-0.29126542618905493	1.9787481061676866	-0.3876538396363278	-0.9414218725124903	1.8845951537200016	0.2200998561583905	-0.21267295678509937	2.0571890248055515	-0.6165593084276164	-1.4244050026243211	1.885192356539753	0.6607516561008399	-1.3174536074532246	1.844159215547382	0.48636853787834583
43	1.4333333333333333	-0.24105474830087953	1.886284624600696	-0.5336398124832883	-0.25850676475420675	1.8820207845301038	-0.4747809707089701	-0.2584485114765287	1.728929064422225	-0.43873042953420477													-0.22461899006877503	1.8871789885641521	-0.589888582116473	-0.22471286393417766	1.7385593034527884	-0.5695810946970966	-0.21603280782499504	1.5874612951135065	-0.5375243665654592	-0.22381935845352746	1.5580024264758638	-0.6047442700754582	-0.21240233564339123	1.5672075836049904	-0.6179666243337147	-0.22669687492434057	1.584286569961312	-0.5129991779677385	-0.2379442177495038	2.056078308361811	-0.5286563359544001	-0.2391654069419968	2.1358355613957527	-0.5868610026474579	-0.25846836089519176	2.055747606379042	-0.4426403851067317	-1.7816391211688178	1.8904614072590018	1.2179127003899892	-1.6025119537564345	1.87693503974355	0.8643626170482958	-0.20792998801748566	2.0589979149749125	-0.6098543858505905	-0.15399209641865824	2.016086216089925	-0.6864432365452683	-1.2984323179165884	1.8945679833619449	0.4533270408347442
